<svg version="1.1" xmlns="http://www.w3.org/2000/svg" xmlns:xlink="http://www.w3.org/1999/xlink" width="24" height="24" x="0px" y="0px" viewBox="0 0 1000 1000" enable-background="new 0 0 1000 1000" xml:space="preserve">
<metadata> Svg Vector Icons : http://www.onlinewebfonts.com/icon </metadata>
<g><path d="M487,435c-1.6-44.9,32.2-82.6,75.6-84.3c43.4-1.7,79.9,33.2,81.6,78.1c1.6,44.7-32.2,82.5-75.6,84.2c-1,0.1-2,0.1-3.1,0.1C523.5,513,488.7,478.7,487,435 M133,513.4c74.4-52.8,147.7-84.8,217.4-102.4c-17,22.5-26.5,51.5-25.2,88.3c3.8,100.9,86,179.5,183.6,175.7c97.8-3.9,173.9-88.9,170.2-189.7c-1.1-27.4-8.3-49.9-19.6-68.4c133.3,37.1,216.5,104.2,207.8,96.4c-123.4-131.2-246-174.9-354.8-174.9C294.8,338.5,133,513.4,133,513.4 M91.2,510.3c0,0,193.6-241.5,490.4-200.8C735.1,330.5,911.4,516,911.4,516s-142,200.3-416,200.3c-1,0-2.2,0-3.2,0C257.6,715,91.2,510.3,91.2,510.3 M506.2,228.9C103.8,262.1,10,518.3,10,518.3s226.4,289.6,541.1,250C962.7,716.7,990,479.8,990,479.8S748.9,228,528.9,228C521.3,228,513.7,228.3,506.2,228.9L506.2,228.9z"/></g>
</svg>