<svg version="1.1" xmlns="http://www.w3.org/2000/svg" xmlns:xlink="http://www.w3.org/1999/xlink" width="24" height="24" x="0px" y="0px" viewBox="0 0 1000 1000" enable-background="new 0 0 1000 1000" xml:space="preserve">
<metadata> Svg Vector Icons : http://www.onlinewebfonts.com/icon </metadata>
<g><path d="M990,143.4c-138.5,123-304.8,330.8-498.7,623.4l-95.6,148.8C315.9,815.9,187.3,677.3,10,500l88.9-88.9l237.7,207.8c83.1-83.1,160.4-158.5,231.9-226.1c71.5-67.6,128.6-119.4,171.2-155.4s79-66.8,108.9-92.3c29.9-25.5,51.3-41.8,64-49l17.5-11.6c2.2,0,5.3,0.6,9.1,1.7c3.9,1.1,11.1,6.4,21.6,15.8C971.4,111.3,981.1,125.1,990,143.4L990,143.4z"/></g>
</svg>